PathFileType	4	(X/Y/Z)	D:\TRACE\spot_10-12-23\spot_arm_body_motion_3_3-platform.trc
DataRate	CameraRate	NumFrames	NumMarkers	Units	OrigDataRate	OrigDataStartFrame	OrigNumFrames
100.00	100.00	      36	5	mm	100.00	4376	      7000
Frame#	Time	Left_Front			Right_Front			Left_Aft			Right_Aft			Post			
		X1	Y1	Z1	X2	Y2	Z2	X3	Y3	Z3	X4	Y4	Z4	X5	Y5	Z5	

4376	43.750	-792.45551	32.08961	-635.08325	780.23621	36.66064	-627.91095	-709.35754	-12.95699	502.18985	708.09283	-11.82086	588.40375	-9.49225	781.94312	-924.83588	
4377	43.760	-792.88617	31.92725	-635.20178	779.91656	36.26574	-627.95215	-709.67407	-12.97559	502.15857	707.63055	-11.45405	588.31757	-9.56828	781.62415	-924.92706	
4378	43.770	-793.15875	31.86349	-635.21741	779.45996	35.88955	-628.03613	-710.04071	-12.66254	501.99490	707.18286	-11.17530	588.20642	-10.04865	780.78546	-924.85388	
4379	43.780	-793.62189	31.57981	-635.27985	778.98334	35.78249	-628.11151	-710.37964	-12.11852	501.92804	706.65887	-10.96554	588.14935	-10.39850	780.37122	-924.90302	
4380	43.790	-793.93628	30.98510	-635.28815	778.79150	35.56905	-628.14935	-710.91583	-11.73597	501.84952	706.18970	-10.56831	588.01825	-10.73080	780.11835	-925.10590	
4381	43.800	-794.28314	30.23087	-635.49530	778.25275	34.88860	-628.45734	-711.45349	-11.59503	501.72305	705.93097	-10.41815	587.93433	-11.44298	779.39368	-925.41589	
4382	43.810	-794.65387	29.99371	-635.67792	777.95618	34.45531	-628.71490	-711.74390	-11.41983	501.60114	705.70514	-10.15635	587.87506	-11.90913	778.63159	-925.81561	
4383	43.820	-794.98950	29.87206	-635.71216	777.68774	34.12370	-628.72778	-712.08984	-11.12878	501.60757	705.33307	-9.57475	587.79315	-12.38813	778.19122	-926.56500	
4384	43.830	-795.48969	29.57414	-635.83655	777.32202	33.80778	-628.53595	-712.34106	-10.83386	501.72339	704.97015	-9.20761	587.77539	-12.23430	777.59094	-927.12878	
4385	43.840	-795.91742	29.00587	-635.92938	777.15826	33.38632	-628.62347	-712.91858	-10.32724	501.56808	704.28943	-8.97155	587.55438	-12.97766	776.98254	-928.19739	
4386	43.850	-796.10577	28.37960	-636.24902	776.52716	32.81838	-628.81824	-713.39819	-10.01775	501.45432	703.76501	-8.61991	587.38031	-13.16532	776.37048	-928.96509	
4387	43.860	-796.63129	28.02856	-636.46362	776.21497	32.30667	-628.81824	-713.79523	-9.88057	501.23331	703.59344	-8.38687	587.38617	-13.83151	775.76917	-930.24426	
4388	43.870	-797.12903	27.79391	-636.22278	775.75531	31.86539	-629.03821	-714.08417	-9.70697	501.17816	703.33746	-8.01078	587.33551	-14.01869	775.14771	-931.09009	
4389	43.880	-797.48444	27.37222	-636.22021	775.13446	31.43559	-629.38580	-714.29303	-9.34376	501.16708	703.03571	-7.38082	587.30750	-14.23432	774.42645	-931.75751	
4390	43.890	-797.93134	26.66678	-636.42468	774.78625	31.05506	-629.46930	-714.64771	-8.85967	501.05920	702.77856	-6.91732	587.17432	-14.68426	773.67816	-932.77521	
4391	43.900	-798.20905	26.04878	-636.51843	774.50214	30.53208	-629.52319	-715.23309	-8.51827	500.88000	702.35620	-6.53069	586.95935	-14.81445	772.91321	-933.50305	
4392	43.910	-798.88879	25.63062	-636.61456	774.35016	30.14263	-629.66956	-715.67596	-8.14270	500.74527	701.64954	-6.20139	586.79584	-15.32459	772.05109	-933.96558	
4393	43.920	-799.13647	24.89766	-636.97986	773.87366	29.28184	-630.00427	-716.04346	-7.83145	500.62140	701.26996	-5.80382	586.64752	-15.92500	771.37933	-934.39899	
4394	43.930	-799.54150	24.39997	-637.16138	773.33466	28.62878	-630.12152	-716.39722	-7.51023	500.59763	700.83075	-5.22570	586.64893	-16.34352	770.37769	-934.86334	
4395	43.940	-799.83612	24.08607	-637.26038	773.03589	28.04256	-630.02612	-716.43127	-7.06154	500.55701	700.68610	-4.65644	586.51190	-16.69646	769.58936	-935.49579	
4396	43.950	-800.33032	23.70046	-637.47491	772.72552	27.58146	-630.34479	-716.94312	-6.48671	500.47949	700.41998	-4.20430	586.32275	-16.83372	768.59100	-935.93500	
4397	43.960	-800.63232	22.61128	-637.59723	772.47089	26.93603	-630.52899	-717.32648	-6.07337	500.32016	700.15564	-3.65788	586.11578	-17.12182	767.88208	-936.64258	
4398	43.970	-800.84430	21.89162	-637.66748	772.06464	26.33656	-630.62750	-717.61761	-5.69147	500.09552	699.55817	-3.27618	585.95392	-17.68176	766.65100	-937.61017	
4399	43.980	-801.13672	21.08289	-637.90558	771.52393	25.66924	-631.04553	-718.03259	-5.27771	499.72040	698.97040	-2.69380	585.90735	-17.96679	765.84564	-938.61987	
4400	43.990	-801.61444	20.47732	-638.06250	771.18829	24.91662	-631.11957	-718.44513	-4.87444	499.66122	698.65729	-2.12787	585.91077	-18.08122	764.63385	-939.63910	
4401	44.000	-801.79919	20.17461	-638.18158	770.94678	24.25690	-631.24768	-718.93231	-4.28443	499.46509	698.49329	-1.38463	585.68024	-18.82821	763.95105	-940.98053	
4402	44.010	-802.15350	19.52426	-638.57874	770.91949	23.61899	-631.32983	-718.97119	-3.51680	499.32040	698.30176	-0.99272	585.50226	-18.71464	762.77045	-942.19519	
4403	44.020	-802.37341	18.51664	-638.52344	770.49127	22.96221	-631.64404	-719.21094	-3.08181	499.10040	697.99432	-0.37867	585.43115	-19.33334	761.74689	-943.32892	
4404	44.030	-802.74634	17.74794	-638.74274	770.30475	22.20186	-631.85828	-719.45746	-2.71128	499.05786	697.89966	0.21502	585.32660	-19.43682	760.60193	-944.82684	
4405	44.040	-802.90118	16.88551	-639.09314	769.76630	21.28581	-632.00781	-719.84302	-2.14340	498.91635	697.63177	1.08181	585.11780	-19.42167	759.52045	-945.71533	
4406	44.050	-803.29132	16.13925	-639.21191	769.58362	20.50550	-632.04785	-720.13696	-1.64840	498.68298	697.18542	1.58578	584.80573	-20.11884	758.44830	-947.01569	
4407	44.060	-803.66284	15.56678	-639.49438	769.13409	19.81794	-632.26782	-720.51886	-1.11577	498.46078	696.63635	2.09431	584.56537	-20.22894	757.44818	-947.95319	
4408	44.070	-803.86285	14.87731	-639.74207	768.93408	19.05720	-632.55896	-720.75085	-0.52312	498.25040	696.46124	2.63121	584.34546	-20.39064	756.00970	-948.74579	
4409	44.080	-804.05743	13.71834	-639.73792	768.85400	18.24396	-632.75610	-720.91736	0.05908	498.13022	696.26965	3.51603	584.10284	-20.69251	754.83026	-949.82764	
4410	44.090	-804.21277	12.88955	-640.10443	768.67084	17.39069	-633.08014	-721.06927	0.50361	498.04886	696.20734	4.18539	583.98462	-20.57036	753.75287	-950.86560	
4411	44.100	-804.36902	12.17698	-640.26160	768.59735	16.35604	-633.13721	-721.19934	1.12837	497.79117	696.09033	4.90550	583.88757	-21.06926	752.36359	-951.56317	
